<svg width="1289" height="418" viewBox="0 0 1289 418" fill="none" xmlns="http://www.w3.org/2000/svg">
<rect width="1289" height="418" rx="34" fill="#3D3C3C"/>
<path d="M227.4 92.3V125.6H115.5V181.1H216V212.6H115.5V268.7H231V302H80.1V92.3H227.4Z" fill="#F5B316"/>
<path d="M307.152 276.341L304.152 276.541C283.352 276.541 265.886 269.674 251.752 255.941C237.619 242.074 230.552 224.874 230.552 204.341C230.552 183.674 237.619 166.474 251.752 152.741C265.886 138.874 283.352 131.941 304.152 131.941C324.952 131.941 342.419 138.874 356.552 152.741C370.686 166.474 377.752 183.608 377.752 204.141C377.752 219.741 373.552 233.608 365.152 245.741C356.752 257.741 345.552 266.408 331.552 271.741C336.086 277.741 341.819 280.741 348.752 280.741C353.819 280.741 358.752 279.408 363.552 276.741C368.486 274.074 372.219 270.608 374.752 266.341L388.152 284.941C376.552 297.208 363.286 303.341 348.352 303.341C339.819 303.341 331.619 300.941 323.752 296.141C315.886 291.341 310.352 284.741 307.152 276.341ZM339.152 168.341C329.686 158.474 318.019 153.541 304.152 153.541C290.286 153.541 278.552 158.474 268.952 168.341C259.486 178.208 254.752 190.208 254.752 204.341C254.752 218.341 259.486 230.274 268.952 240.141C278.552 250.008 290.286 254.941 304.152 254.941C318.019 254.941 329.686 250.008 339.152 240.141C348.752 230.274 353.552 218.341 353.552 204.341C353.552 190.208 348.752 178.208 339.152 168.341ZM468.721 226.341V168.741H491.121V275.141H468.721V255.741C465.121 262.274 460.121 267.408 453.721 271.141C447.454 274.874 440.654 276.741 433.321 276.741C421.321 276.741 411.588 273.074 404.121 265.741C396.788 258.408 393.121 247.808 393.121 233.941V168.741H415.521V227.141C415.521 246.741 423.654 256.541 439.921 256.541C447.654 256.541 454.388 254.008 460.121 248.941C465.854 243.741 468.721 236.208 468.721 226.341ZM536.018 275.141H513.618V168.741H536.018V275.141ZM515.018 147.541C512.218 144.741 510.818 141.408 510.818 137.541C510.818 133.674 512.218 130.341 515.018 127.541C517.818 124.741 521.151 123.341 525.018 123.341C528.885 123.341 532.218 124.741 535.018 127.541C537.818 130.341 539.218 133.674 539.218 137.541C539.218 141.408 537.818 144.741 535.018 147.541C532.218 150.341 528.885 151.741 525.018 151.741C521.151 151.741 517.818 150.341 515.018 147.541ZM580.901 275.141H558.501V126.741H580.901V275.141ZM625.784 275.141H603.384V168.741H625.784V275.141ZM604.784 147.541C601.984 144.741 600.584 141.408 600.584 137.541C600.584 133.674 601.984 130.341 604.784 127.541C607.584 124.741 610.917 123.341 614.784 123.341C618.65 123.341 621.984 124.741 624.784 127.541C627.584 130.341 628.984 133.674 628.984 137.541C628.984 141.408 627.584 144.741 624.784 147.541C621.984 150.341 618.65 151.741 614.784 151.741C610.917 151.741 607.584 150.341 604.784 147.541ZM705.266 167.141C719.533 167.141 731.733 172.074 741.866 181.941C752 191.808 757.066 204.941 757.066 221.341C757.066 237.741 752 251.074 741.866 261.341C731.866 271.608 720.133 276.741 706.666 276.741C693.333 276.741 681.333 270.874 670.666 259.141V275.141H648.266V126.741H670.666V187.341C679.466 173.874 691 167.141 705.266 167.141ZM670.266 222.141C670.266 232.274 673.333 240.608 679.466 247.141C685.6 253.541 693.066 256.741 701.866 256.741C710.666 256.741 718.333 253.541 724.866 247.141C731.4 240.741 734.666 232.474 734.666 222.341C734.666 212.074 731.466 203.608 725.066 196.941C718.666 190.141 711 186.741 702.066 186.741C693.133 186.741 685.6 190.141 679.466 196.941C673.333 203.608 670.266 212.008 670.266 222.141ZM828.441 189.741C817.375 189.741 809.041 193.341 803.441 200.541C797.841 207.741 795.041 217.408 795.041 229.541V275.141H772.641V168.741H795.041V190.141C798.641 183.474 803.508 178.008 809.641 173.741C815.908 169.474 822.508 167.274 829.441 167.141L829.641 189.741C829.241 189.741 828.841 189.741 828.441 189.741ZM864.534 275.141H842.134V168.741H864.534V275.141ZM843.534 147.541C840.734 144.741 839.334 141.408 839.334 137.541C839.334 133.674 840.734 130.341 843.534 127.541C846.334 124.741 849.667 123.341 853.534 123.341C857.4 123.341 860.734 124.741 863.534 127.541C866.334 130.341 867.734 133.674 867.734 137.541C867.734 141.408 866.334 144.741 863.534 147.541C860.734 150.341 857.4 151.741 853.534 151.741C849.667 151.741 846.334 150.341 843.534 147.541ZM961.416 226.341V168.741H983.816V275.141H961.416V255.741C957.816 262.274 952.816 267.408 946.416 271.141C940.15 274.874 933.35 276.741 926.016 276.741C914.016 276.741 904.283 273.074 896.816 265.741C889.483 258.408 885.816 247.808 885.816 233.941V168.741H908.216V227.141C908.216 246.741 916.35 256.541 932.616 256.541C940.35 256.541 947.083 254.008 952.816 248.941C958.55 243.741 961.416 236.208 961.416 226.341ZM1028.71 217.541V275.141H1006.31V168.741H1028.71V188.141C1031.91 181.608 1036.71 176.474 1043.11 172.741C1049.65 169.008 1056.65 167.141 1064.11 167.141C1080.91 167.141 1092.31 174.074 1098.31 187.941C1108.85 174.074 1121.98 167.141 1137.71 167.141C1149.71 167.141 1159.38 170.808 1166.71 178.141C1174.18 185.474 1177.91 196.074 1177.91 209.941V275.141H1155.51V216.741C1155.51 197.141 1147.38 187.341 1131.11 187.341C1123.51 187.341 1116.85 189.808 1111.11 194.741C1105.51 199.541 1102.58 206.608 1102.31 215.941V275.141H1079.91V216.741C1079.91 206.608 1078.11 199.208 1074.51 194.541C1070.91 189.741 1065.25 187.341 1057.51 187.341C1049.78 187.341 1043.05 189.941 1037.31 195.141C1031.58 200.208 1028.71 207.674 1028.71 217.541Z" fill="#E7E5E5"/>
</svg>
